<?xml version="1.0" encoding="UTF-8"?>
<svg xmlns="http://www.w3.org/2000/svg" xmlns:xlink="http://www.w3.org/1999/xlink" width="79pt" height="66pt" viewBox="0 0 79 66" version="1.1">
<g id="surface1">
<path style=" stroke:none;fill-rule:nonzero;fill:rgb(0%,0%,0%);fill-opacity:1;" d="M 28.910156 8.421875 L 17.851562 8.421875 L 0 32.082031 L 17.851562 55.742188 L 28.910156 55.742188 L 11.058594 32.082031 Z M 50.089844 8.421875 L 61.148438 8.421875 L 79 32.082031 L 61.148438 55.742188 L 50.089844 55.742188 L 67.941406 32.082031 Z M 45.113281 0.132812 L 48.945312 1.035156 C 49.546875 1.175781 49.921875 1.785156 49.785156 2.394531 L 35.320312 65.019531 C 35.179688 65.621094 34.574219 66.003906 33.972656 65.867188 L 30.144531 64.964844 C 29.542969 64.824219 29.167969 64.214844 29.304688 63.605469 L 43.769531 0.980469 C 43.910156 0.378906 44.515625 -0.00390625 45.113281 0.132812 Z M 45.113281 0.132812 "/>
</g>
</svg>
