<?xml version="1.0" encoding="UTF-8"?>
<svg xmlns="http://www.w3.org/2000/svg" xmlns:xlink="http://www.w3.org/1999/xlink" width="75pt" height="75pt" viewBox="0 0 75 75" version="1.1">
<g id="surface1">
<path style=" stroke:none;fill-rule:evenodd;fill:rgb(0%,0%,0%);fill-opacity:1;" d="M 30.769531 44.140625 C 30.769531 44.140625 25.191406 42.652344 22.621094 47.398438 C 20.015625 52.164062 24.652344 53.886719 20.769531 58.84375 C 17.210938 63.378906 14.09375 60.5625 14.09375 60.5625 C 14.09375 60.5625 16.6875 64.761719 22.621094 63.617188 C 28.542969 62.476562 34.097656 58.273438 36.328125 50.261719 C 38.542969 42.238281 31.324219 44.15625 30.769531 44.15625 Z M 30.769531 44.140625 "/>
<path style=" stroke:none;fill-rule:evenodd;fill:rgb(0%,0%,0%);fill-opacity:1;" d="M 62.230469 12.28125 C 62.230469 12.28125 39.238281 15.015625 29.082031 42.691406 L 37.320312 49.660156 C 37.320312 49.660156 58.234375 35.515625 62.242188 12.28125 Z M 62.230469 12.28125 "/>
<path style="fill-rule:evenodd;fill:rgb(100%,100%,100%);fill-opacity:1;stroke-width:1.7717;stroke-linecap:round;stroke-linejoin:round;stroke:rgb(0%,0%,0%);stroke-opacity:1;stroke-miterlimit:4;" d="M 215.811883 166.116358 C 217.446211 166.120634 218.787388 167.460369 218.787028 169.091189 L 218.784818 184.155857 C 218.790657 185.809358 217.447822 187.139195 215.801745 187.145442 C 214.160402 187.133332 212.829749 185.805346 212.819585 184.162777 L 212.818287 169.094193 C 212.819872 167.4411 214.155691 166.103431 215.811883 166.116358 Z M 215.811883 166.116358 " transform="matrix(0.495698,-0.553416,0.553416,0.495698,-172.366071,78.793374)"/>
<path style=" stroke:none;fill-rule:evenodd;fill:rgb(100%,100%,100%);fill-opacity:1;" d="M 50.203125 18.828125 C 50.203125 18.828125 40.695312 24.746094 37.53125 31.5 C 34.363281 38.257812 47.039062 25.171875 49.359375 22.417969 C 51.675781 19.675781 51.675781 18.207031 50.203125 18.828125 Z M 50.203125 18.828125 "/>
<path style=" stroke:none;fill-rule:evenodd;fill:rgb(100%,100%,100%);fill-opacity:1;" d="M 29.296875 47.933594 C 29.296875 47.933594 24.835938 47.261719 23.988281 51.910156 C 23.144531 56.558594 25.40625 58.644531 19.527344 61.8125 C 19.140625 62.019531 23.496094 61.484375 24.921875 59.757812 C 28.871094 54.964844 23.148438 51.542969 29.296875 47.933594 Z M 29.296875 47.933594 "/>
</g>
</svg>
